<svg width="18" height="18" viewBox="0 0 18 18" fill="none" xmlns="http://www.w3.org/2000/svg">
<g clip-path="url(#clip0_0_3013)">
<path d="M17.7 8.99999C17.7 13.9896 13.503 17.9961 8.4456 17.6829C4.1124 17.4144 0.585597 13.8876 0.317397 9.55439C0.00389665 4.49699 4.0104 0.299988 9 0.299988C10.3704 0.299988 11.6679 0.616188 12.822 1.18229C13.1313 1.33409 13.2447 1.71929 13.074 2.01869L13.0728 2.02079C12.915 2.29739 12.5706 2.40029 12.285 2.25959C11.1396 1.69559 9.8301 1.42109 8.448 1.51979C4.818 1.77869 1.8534 4.69019 1.5303 8.31509C1.1283 12.8268 4.7439 16.6137 9.1992 16.4973C13.0146 16.3977 16.1994 13.3719 16.4787 9.56549C16.5513 8.57669 16.4322 7.61939 16.149 6.73679C16.0593 6.45689 16.1898 6.15479 16.4526 6.02339C16.7808 5.85929 17.1831 6.02339 17.2944 6.37289C17.5578 7.20119 17.7 8.08379 17.7 8.99999Z" fill="#222222"/>
<path d="M4.62298 6.74158L9.36718 13.1607C9.72538 13.6455 10.4544 13.6035 10.7565 13.0809L17.6121 1.21348C17.9691 0.595483 17.1546 -0.0258171 16.6689 0.494383L9.52648 8.14498L5.38228 5.85118C4.82218 5.54128 4.24018 6.22348 4.62298 6.74158Z" fill="#222222"/>
</g>
<defs>
<clipPath id="clip0_0_3013">
<rect width="18" height="18" fill="white"/>
</clipPath>
</defs>
</svg>
