<svg width="33" height="42" viewBox="0 0 33 42" fill="none" xmlns="http://www.w3.org/2000/svg">
<path d="M0.166992 2.59301V39.4067C0.166884 39.8161 0.269766 40.2181 0.465025 40.5712C0.660284 40.9244 0.940846 41.2159 1.27777 41.4156C1.61469 41.6154 1.99576 41.7162 2.38168 41.7077C2.76759 41.6991 3.14436 41.5815 3.47312 41.367L31.675 22.9602C31.9909 22.7543 32.2518 22.466 32.4327 22.1229C32.6137 21.7797 32.7087 21.393 32.7087 20.9998C32.7087 20.6066 32.6137 20.22 32.4327 19.8768C32.2518 19.5336 31.9909 19.2454 31.675 19.0395L3.47312 0.632679C3.14436 0.418158 2.76759 0.300556 2.38168 0.292006C1.99576 0.283456 1.61469 0.384268 1.27777 0.584041C0.940846 0.783813 0.660284 1.07531 0.465025 1.42846C0.269766 1.78161 0.166884 2.18362 0.166992 2.59301Z" fill="black"/>
</svg>
